<?xml version="1.0" encoding="UTF-8" standalone="no"?>
<svg
   xmlns:dc="http://purl.org/dc/elements/1.1/"
   xmlns:cc="http://creativecommons.org/ns#"
   xmlns:rdf="http://www.w3.org/1999/02/22-rdf-syntax-ns#"
   xmlns:svg="http://www.w3.org/2000/svg"
   xmlns="http://www.w3.org/2000/svg"
   xmlns:sodipodi="http://sodipodi.sourceforge.net/DTD/sodipodi-0.dtd"
   xmlns:inkscape="http://www.inkscape.org/namespaces/inkscape"
   width="112mm"
   height="23mm"
   viewBox="0 0 112 23"
   version="1.1"
   id="svg8"
   inkscape:version="1.0.2 (e86c870879, 2021-01-15, custom)"
   sodipodi:docname="logo.svg">
  <defs
     id="defs2">
    <rect
       x="83.92263"
       y="101.56242"
       width="113.32228"
       height="53.453907"
       id="rect1404" />
    <rect
       x="83.92263"
       y="101.56242"
       width="113.32228"
       height="53.453907"
       id="rect1404-3" />
    <rect
       x="83.92263"
       y="101.56242"
       width="113.32228"
       height="53.453907"
       id="rect1476" />
    <rect
       x="83.92263"
       y="101.56242"
       width="113.32228"
       height="53.453907"
       id="rect1404-1" />
    <rect
       x="83.92263"
       y="101.56242"
       width="113.32228"
       height="53.453907"
       id="rect1476-4" />
  </defs>
  <sodipodi:namedview
     id="base"
     pagecolor="#2d3059"
     bordercolor="#666666"
     borderopacity="1.0"
     inkscape:pageopacity="0"
     inkscape:pageshadow="2"
     inkscape:zoom="1.979899"
     inkscape:cx="330.14258"
     inkscape:cy="152.88249"
     inkscape:document-units="mm"
     inkscape:current-layer="layer1"
     inkscape:document-rotation="0"
     showgrid="false"
     inkscape:window-width="1920"
     inkscape:window-height="1017"
     inkscape:window-x="-8"
     inkscape:window-y="-8"
     inkscape:window-maximized="1"
     inkscape:pagecheckerboard="false"
     width="296mm" />
  <metadata
     id="metadata5">
    <rdf:RDF>
      <cc:Work
         rdf:about="">
        <dc:format>image/svg+xml</dc:format>
        <dc:type
           rdf:resource="http://purl.org/dc/dcmitype/StillImage" />
        <dc:title></dc:title>
      </cc:Work>
    </rdf:RDF>
  </metadata>
  <g
     inkscape:label="Layer 1"
     inkscape:groupmode="layer"
     id="layer1">
    <text
       xml:space="preserve"
       id="text1402-4"
       style="font-style:normal;font-weight:normal;font-size:10.5833px;line-height:0;font-family:sans-serif;white-space:pre;shape-inside:url(#rect1404-1);fill:#ffffff;fill-opacity:1;stroke:none;"
       transform="translate(-60.484719,-100.16407)"><tspan
         x="83.921875"
         y="111.21797"><tspan
           style="font-style:normal;font-variant:normal;font-weight:bold;font-stretch:normal;line-height:1.25;font-family:sans-serif;-inkscape-font-specification:'sans-serif Bold';fill:#ffffff;fill-opacity:1">CodeConverter</tspan><tspan
           style="fill:#ffffff;fill-opacity:1">
</tspan></tspan><tspan
         x="83.921875"
         y="118.89847"><tspan
           style="fill:#ffffff;fill-opacity:1"> </tspan><tspan
           style="font-size:4.7625px;line-height:1.15;fill:#ffffff;fill-opacity:1">Assembly Language</tspan></tspan></text>
    <path
       style="fill:none;stroke:#000000;stroke-width:0.37613px;stroke-linecap:butt;stroke-linejoin:miter;stroke-opacity:1"
       d="m 7.9745261,8.2078151 5.9300929,-5.41818 1.253941,-0.75552 1.567424,-0.34537 1.358437,0.17269 1.04495,0.38856 0.783713,0.58281 -5.982339,5.41819 5.930091,5.3318099 -0.522472,0.41013 -0.783716,0.38855 -0.835957,0.23744 -0.940459,0.0648 -0.835957,-0.10788 -0.809838,-0.25904 -0.731465,-0.34537 z"
       id="path1433-2" />
    <path
       style="fill:none;stroke:#000000;stroke-width:0.37613px;stroke-linecap:butt;stroke-linejoin:miter;stroke-opacity:1"
       d="m 0.52925783,9.5029753 1.01882727,-0.6691702 1.018827,-0.34538 1.384558,-0.0648 1.410683,0.34536 0.835961,0.5180795 6.2174499,5.5692504 -6.2696979,5.72038 -0.914332,0.43173 -0.96658,0.23744 -0.731466,0.0648 -0.757588,-0.0431 -0.757588,-0.19427 -0.470227,-0.17268 -0.96657927,-0.62602 6.00846027,-5.39657 z"
       id="path1435-96" />
    <path
       style="fill:#d73533;fill-opacity:1;stroke:#ffffff;stroke-width:0.201;stroke-miterlimit:4;stroke-dasharray:none;stroke-opacity:1"
       d="M 16.338796,14.407214 C 15.948705,14.347734 15.04665,14.054059 14.732968,13.884408 14.465226,13.739604 8.3496701,8.2603351 8.3760441,8.1888841 c 0.0108,-0.02923 1.2883652,-1.21298 2.8390589,-2.630561 3.328688,-3.042952 3.567932,-3.216469 4.802973,-3.483494 0.731104,-0.15807 0.785569,-0.16083 1.413256,-0.07164 0.725974,0.103153 1.427588,0.343056 1.824635,0.623895 0.144063,0.101899 0.262575,0.20062 0.263359,0.219379 7.93e-4,0.01876 -1.321557,1.232099 -2.938537,2.696311 -1.616982,1.464209 -2.939965,2.683933 -2.939965,2.7105 0,0.02656 1.309626,1.2243012 2.910279,2.6616369 1.600655,1.437336 2.916121,2.635522 2.923262,2.662634 0.02246,0.08533 -0.903319,0.554887 -1.356778,0.68815 -0.515522,0.151503 -1.302594,0.214122 -1.778791,0.141519 z"
       id="path1449-2" />
    <path
       style="fill:#d73533;fill-opacity:1;stroke:#ffffff;stroke-width:0.20102;stroke-miterlimit:4;stroke-dasharray:none;stroke-opacity:1"
       d="m 2.3412561,20.923642 c -0.327981,-0.09262 -0.749951,-0.27287 -0.9813933,-0.419206 L 0.95384883,20.247719 3.9230591,17.583886 c 1.633064,-1.465109 2.96921,-2.683235 2.96921,-2.706947 0,-0.02371 -1.338019,-1.228246 -2.973375,-2.676744 -1.635355,-1.448496 -2.97283427,-2.6499367 -2.97217327,-2.6698677 0.0031,-0.09289 0.73726227,-0.5025797 1.16218027,-0.6485152 1.102336,-0.378592 2.657589,-0.224084 3.567459,0.3544145 0.444021,0.2823107 6.3784369,5.5556674 6.3463299,5.6393874 -0.0104,0.0271 -1.35691,1.273096 -2.9922649,2.768886 -2.504842,2.291077 -3.041812,2.751772 -3.407688,2.923656 -0.637056,0.299275 -1.283523,0.454065 -2.037929,0.487958 -0.565449,0.0254 -0.756632,0.005 -1.243552,-0.132472 z"
       id="path1451-2" />
    <path
       style="fill:none;fill-opacity:1;stroke:#bbbbbf;stroke-width:0.796;stroke-linecap:butt;stroke-linejoin:miter;stroke-miterlimit:4;stroke-dasharray:none;stroke-opacity:1"
       d="M 21.730114,-0.06077491 21.786494,22.534253"
       id="path1413-3" />
  </g>
</svg>
